<?xml version="1.0" encoding="UTF-8" standalone="no"?>
<!DOCTYPE svg PUBLIC "-//W3C//DTD SVG 1.1//EN"
 "http://www.w3.org/Graphics/SVG/1.1/DTD/svg11.dtd">
<!-- Generated by graphviz version 2.40.1 (20161225.0304)
 -->
<!-- Title: G Pages: 1 -->
<svg width="1394pt" height="617pt"
 viewBox="0.00 0.00 1393.94 617.20" xmlns="http://www.w3.org/2000/svg" xmlns:xlink="http://www.w3.org/1999/xlink">
<g id="graph0" class="graph" transform="scale(1 1) rotate(0) translate(21.6 595.6)">
<title>G</title>
<polygon fill="#111111" stroke="transparent" points="-21.6,21.6 -21.6,-595.6 1372.3432,-595.6 1372.3432,21.6 -21.6,21.6"/>
<!-- index.ts -->
<g id="node1" class="node">
<title>index.ts</title>
<path fill="none" stroke="#c6c5fe" d="M57.0392,-331C57.0392,-331 7.2088,-331 7.2088,-331 3.5422,-331 -.1245,-327.3333 -.1245,-323.6667 -.1245,-323.6667 -.1245,-316.3333 -.1245,-316.3333 -.1245,-312.6667 3.5422,-309 7.2088,-309 7.2088,-309 57.0392,-309 57.0392,-309 60.7059,-309 64.3726,-312.6667 64.3726,-316.3333 64.3726,-316.3333 64.3726,-323.6667 64.3726,-323.6667 64.3726,-327.3333 60.7059,-331 57.0392,-331"/>
<text text-anchor="middle" x="32.124" y="-315.8" font-family="Arial" font-size="14.00" fill="#c6c5fe">index.ts</text>
</g>
<!-- interfaces.ts -->
<g id="node2" class="node">
<title>interfaces.ts</title>
<path fill="none" stroke="#cfffac" d="M671.3588,-97C671.3588,-97 594.0718,-97 594.0718,-97 590.4052,-97 586.7385,-93.3333 586.7385,-89.6667 586.7385,-89.6667 586.7385,-82.3333 586.7385,-82.3333 586.7385,-78.6667 590.4052,-75 594.0718,-75 594.0718,-75 671.3588,-75 671.3588,-75 675.0255,-75 678.6922,-78.6667 678.6922,-82.3333 678.6922,-82.3333 678.6922,-89.6667 678.6922,-89.6667 678.6922,-93.3333 675.0255,-97 671.3588,-97"/>
<text text-anchor="middle" x="632.7153" y="-81.8" font-family="Arial" font-size="14.00" fill="#cfffac">interfaces.ts</text>
</g>
<!-- index.ts&#45;&gt;interfaces.ts -->
<g id="edge1" class="edge">
<title>index.ts&#45;&gt;interfaces.ts</title>
<path fill="none" stroke="#757575" d="M37.2429,-308.8196C55.223,-271.0423 119.6164,-147.788 215.2822,-99 332.4363,-39.2533 493.1242,-57.6424 576.8495,-73.4398"/>
<polygon fill="#757575" stroke="#757575" points="576.1862,-76.8763 586.6703,-75.3481 577.5215,-70.0048 576.1862,-76.8763"/>
</g>
<!-- intersection&#45;observer.ts -->
<g id="node3" class="node">
<title>intersection&#45;observer.ts</title>
<path fill="none" stroke="#c6c5fe" d="M538.0648,-240C538.0648,-240 392.2565,-240 392.2565,-240 388.5898,-240 384.9231,-236.3333 384.9231,-232.6667 384.9231,-232.6667 384.9231,-225.3333 384.9231,-225.3333 384.9231,-221.6667 388.5898,-218 392.2565,-218 392.2565,-218 538.0648,-218 538.0648,-218 541.7315,-218 545.3982,-221.6667 545.3982,-225.3333 545.3982,-225.3333 545.3982,-232.6667 545.3982,-232.6667 545.3982,-236.3333 541.7315,-240 538.0648,-240"/>
<text text-anchor="middle" x="465.1606" y="-224.8" font-family="Arial" font-size="14.00" fill="#c6c5fe">intersection&#45;observer.ts</text>
</g>
<!-- index.ts&#45;&gt;intersection&#45;observer.ts -->
<g id="edge2" class="edge">
<title>index.ts&#45;&gt;intersection&#45;observer.ts</title>
<path fill="none" stroke="#757575" d="M64.3758,-315.0784C94.2573,-310.3865 139.8965,-302.8849 179.2822,-295 260.3237,-278.7757 353.479,-256.604 410.8356,-242.5417"/>
<polygon fill="#757575" stroke="#757575" points="411.8941,-245.8858 420.7693,-240.0995 410.2229,-239.0882 411.8941,-245.8858"/>
</g>
<!-- metal/engine.ts -->
<g id="node4" class="node">
<title>metal/engine.ts</title>
<path fill="none" stroke="#c6c5fe" d="M988.3254,-470C988.3254,-470 892.1033,-470 892.1033,-470 888.4367,-470 884.77,-466.3333 884.77,-462.6667 884.77,-462.6667 884.77,-455.3333 884.77,-455.3333 884.77,-451.6667 888.4367,-448 892.1033,-448 892.1033,-448 988.3254,-448 988.3254,-448 991.992,-448 995.6587,-451.6667 995.6587,-455.3333 995.6587,-455.3333 995.6587,-462.6667 995.6587,-462.6667 995.6587,-466.3333 991.992,-470 988.3254,-470"/>
<text text-anchor="middle" x="940.2144" y="-454.8" font-family="Arial" font-size="14.00" fill="#c6c5fe">metal/engine.ts</text>
</g>
<!-- index.ts&#45;&gt;metal/engine.ts -->
<g id="edge3" class="edge">
<title>index.ts&#45;&gt;metal/engine.ts</title>
<path fill="none" stroke="#757575" d="M39.7091,-331.1347C67.25,-370.1032 166.4457,-498 282.0371,-498 282.0371,-498 282.0371,-498 632.7153,-498 717.4615,-498 814.3087,-483.2412 876.298,-471.8818"/>
<polygon fill="#757575" stroke="#757575" points="877.1266,-475.2879 886.3186,-470.0195 875.8474,-468.4057 877.1266,-475.2879"/>
</g>
<!-- metal/index.ts -->
<g id="node5" class="node">
<title>metal/index.ts</title>
<path fill="none" stroke="#ff6c60" d="M676.7547,-384C676.7547,-384 588.6759,-384 588.6759,-384 585.0092,-384 581.3426,-380.3333 581.3426,-376.6667 581.3426,-376.6667 581.3426,-369.3333 581.3426,-369.3333 581.3426,-365.6667 585.0092,-362 588.6759,-362 588.6759,-362 676.7547,-362 676.7547,-362 680.4214,-362 684.0881,-365.6667 684.0881,-369.3333 684.0881,-369.3333 684.0881,-376.6667 684.0881,-376.6667 684.0881,-380.3333 680.4214,-384 676.7547,-384"/>
<text text-anchor="middle" x="632.7153" y="-368.8" font-family="Arial" font-size="14.00" fill="#ff6c60">metal/index.ts</text>
</g>
<!-- index.ts&#45;&gt;metal/index.ts -->
<g id="edge4" class="edge">
<title>index.ts&#45;&gt;metal/index.ts</title>
<path fill="none" stroke="#757575" d="M64.4144,-322.8495C160.2761,-331.309 444.3891,-356.3809 570.8294,-367.5388"/>
<polygon fill="#757575" stroke="#757575" points="570.8425,-371.0535 581.1115,-368.4461 571.4579,-364.0806 570.8425,-371.0535"/>
</g>
<!-- metal/window&#45;proxy.ts -->
<g id="node6" class="node">
<title>metal/window&#45;proxy.ts</title>
<path fill="none" stroke="#c6c5fe" d="M1178.0394,-373C1178.0394,-373 1038.7907,-373 1038.7907,-373 1035.124,-373 1031.4573,-369.3333 1031.4573,-365.6667 1031.4573,-365.6667 1031.4573,-358.3333 1031.4573,-358.3333 1031.4573,-354.6667 1035.124,-351 1038.7907,-351 1038.7907,-351 1178.0394,-351 1178.0394,-351 1181.7061,-351 1185.3728,-354.6667 1185.3728,-358.3333 1185.3728,-358.3333 1185.3728,-365.6667 1185.3728,-365.6667 1185.3728,-369.3333 1181.7061,-373 1178.0394,-373"/>
<text text-anchor="middle" x="1108.415" y="-357.8" font-family="Arial" font-size="14.00" fill="#c6c5fe">metal/window&#45;proxy.ts</text>
</g>
<!-- index.ts&#45;&gt;metal/window&#45;proxy.ts -->
<g id="edge5" class="edge">
<title>index.ts&#45;&gt;metal/window&#45;proxy.ts</title>
<path fill="none" stroke="#757575" d="M36.4997,-331.2418C56.4445,-380.3984 143.7728,-574 282.0371,-574 282.0371,-574 282.0371,-574 784.3218,-574 924.4672,-574 1051.2542,-433.4522 1093.5254,-381.2315"/>
<polygon fill="#757575" stroke="#757575" points="1096.5092,-383.103 1099.9994,-373.0996 1091.0327,-378.7431 1096.5092,-383.103"/>
</g>
<!-- spaniel&#45;observer.ts -->
<g id="node7" class="node">
<title>spaniel&#45;observer.ts</title>
<path fill="none" stroke="#c6c5fe" d="M341.2144,-240C341.2144,-240 222.8598,-240 222.8598,-240 219.1931,-240 215.5264,-236.3333 215.5264,-232.6667 215.5264,-232.6667 215.5264,-225.3333 215.5264,-225.3333 215.5264,-221.6667 219.1931,-218 222.8598,-218 222.8598,-218 341.2144,-218 341.2144,-218 344.8811,-218 348.5478,-221.6667 348.5478,-225.3333 348.5478,-225.3333 348.5478,-232.6667 348.5478,-232.6667 348.5478,-236.3333 344.8811,-240 341.2144,-240"/>
<text text-anchor="middle" x="282.0371" y="-224.8" font-family="Arial" font-size="14.00" fill="#c6c5fe">spaniel&#45;observer.ts</text>
</g>
<!-- index.ts&#45;&gt;spaniel&#45;observer.ts -->
<g id="edge6" class="edge">
<title>index.ts&#45;&gt;spaniel&#45;observer.ts</title>
<path fill="none" stroke="#757575" d="M62.7683,-308.8416C107.8577,-292.4234 192.1165,-261.7425 242.0304,-243.5675"/>
<polygon fill="#757575" stroke="#757575" points="243.3346,-246.8175 251.5335,-240.1072 240.9395,-240.24 243.3346,-246.8175"/>
</g>
<!-- utils.ts -->
<g id="node8" class="node">
<title>utils.ts</title>
<path fill="none" stroke="#c6c5fe" d="M960.5577,-124C960.5577,-124 919.871,-124 919.871,-124 916.2043,-124 912.5376,-120.3333 912.5376,-116.6667 912.5376,-116.6667 912.5376,-109.3333 912.5376,-109.3333 912.5376,-105.6667 916.2043,-102 919.871,-102 919.871,-102 960.5577,-102 960.5577,-102 964.2244,-102 967.8911,-105.6667 967.8911,-109.3333 967.8911,-109.3333 967.8911,-116.6667 967.8911,-116.6667 967.8911,-120.3333 964.2244,-124 960.5577,-124"/>
<text text-anchor="middle" x="940.2144" y="-108.8" font-family="Arial" font-size="14.00" fill="#c6c5fe">utils.ts</text>
</g>
<!-- index.ts&#45;&gt;utils.ts -->
<g id="edge7" class="edge">
<title>index.ts&#45;&gt;utils.ts</title>
<path fill="none" stroke="#757575" d="M33.3156,-308.7241C37.278,-275.9909 52.5861,-179.3915 100.248,-118 159.318,-41.9144 185.7133,0 282.0371,0 282.0371,0 282.0371,0 632.7153,0 743.282,0 863.2454,-65.1618 914.5756,-96.5207"/>
<polygon fill="#757575" stroke="#757575" points="913.0007,-99.6624 923.3436,-101.9593 916.6906,-93.7139 913.0007,-99.6624"/>
</g>
<!-- watcher.ts -->
<g id="node9" class="node">
<title>watcher.ts</title>
<path fill="none" stroke="#c6c5fe" d="M171.966,-245C171.966,-245 107.5643,-245 107.5643,-245 103.8976,-245 100.2309,-241.3333 100.2309,-237.6667 100.2309,-237.6667 100.2309,-230.3333 100.2309,-230.3333 100.2309,-226.6667 103.8976,-223 107.5643,-223 107.5643,-223 171.966,-223 171.966,-223 175.6327,-223 179.2993,-226.6667 179.2993,-230.3333 179.2993,-230.3333 179.2993,-237.6667 179.2993,-237.6667 179.2993,-241.3333 175.6327,-245 171.966,-245"/>
<text text-anchor="middle" x="139.7651" y="-229.8" font-family="Arial" font-size="14.00" fill="#c6c5fe">watcher.ts</text>
</g>
<!-- index.ts&#45;&gt;watcher.ts -->
<g id="edge8" class="edge">
<title>index.ts&#45;&gt;watcher.ts</title>
<path fill="none" stroke="#757575" d="M46.1962,-308.757C64.4081,-294.2066 96.3392,-268.6952 117.7678,-251.5748"/>
<polygon fill="#757575" stroke="#757575" points="120.0615,-254.2222 125.6895,-245.2458 115.6921,-248.7533 120.0615,-254.2222"/>
</g>
<!-- intersection&#45;observer.ts&#45;&gt;interfaces.ts -->
<g id="edge9" class="edge">
<title>intersection&#45;observer.ts&#45;&gt;interfaces.ts</title>
<path fill="none" stroke="#757575" d="M478.3084,-217.779C507.3055,-193.0313 576.942,-133.5999 611.9226,-103.7456"/>
<polygon fill="#757575" stroke="#757575" points="614.2943,-106.3229 619.6287,-97.1688 609.7501,-100.9983 614.2943,-106.3229"/>
</g>
<!-- intersection&#45;observer.ts&#45;&gt;metal/index.ts -->
<g id="edge10" class="edge">
<title>intersection&#45;observer.ts&#45;&gt;metal/index.ts</title>
<path fill="none" stroke="#757575" d="M517.6048,-240.002C527.4235,-243.4942 537.2046,-248.0565 545.5293,-254 582.1251,-280.1279 609.5326,-326.3894 623.142,-352.8792"/>
<polygon fill="#757575" stroke="#757575" points="620.0829,-354.588 627.6727,-361.9803 626.3493,-351.4684 620.0829,-354.588"/>
</g>
<!-- intersection&#45;observer.ts&#45;&gt;utils.ts -->
<g id="edge11" class="edge">
<title>intersection&#45;observer.ts&#45;&gt;utils.ts</title>
<path fill="none" stroke="#757575" d="M510.2808,-217.9824C603.5323,-195.212 815.9957,-143.3321 902.5084,-122.2071"/>
<polygon fill="#757575" stroke="#757575" points="903.5336,-125.5597 912.4179,-119.7874 901.8731,-118.7595 903.5336,-125.5597"/>
</g>
<!-- metal/engine.ts&#45;&gt;metal/window&#45;proxy.ts -->
<g id="edge14" class="edge">
<title>metal/engine.ts&#45;&gt;metal/window&#45;proxy.ts</title>
<path fill="none" stroke="#757575" d="M959.5091,-447.8729C989.0873,-430.8154 1045.8015,-398.1087 1080.0608,-378.3517"/>
<polygon fill="#757575" stroke="#757575" points="1082.1727,-381.1741 1089.087,-373.1464 1078.6757,-375.1102 1082.1727,-381.1741"/>
</g>
<!-- metal/interfaces.ts -->
<g id="node11" class="node">
<title>metal/interfaces.ts</title>
<path fill="none" stroke="#cfffac" d="M1343.2103,-411C1343.2103,-411 1228.6765,-411 1228.6765,-411 1225.0098,-411 1221.3431,-407.3333 1221.3431,-403.6667 1221.3431,-403.6667 1221.3431,-396.3333 1221.3431,-396.3333 1221.3431,-392.6667 1225.0098,-389 1228.6765,-389 1228.6765,-389 1343.2103,-389 1343.2103,-389 1346.8769,-389 1350.5436,-392.6667 1350.5436,-396.3333 1350.5436,-396.3333 1350.5436,-403.6667 1350.5436,-403.6667 1350.5436,-407.3333 1346.8769,-411 1343.2103,-411"/>
<text text-anchor="middle" x="1285.9434" y="-395.8" font-family="Arial" font-size="14.00" fill="#cfffac">metal/interfaces.ts</text>
</g>
<!-- metal/engine.ts&#45;&gt;metal/interfaces.ts -->
<g id="edge13" class="edge">
<title>metal/engine.ts&#45;&gt;metal/interfaces.ts</title>
<path fill="none" stroke="#757575" d="M995.7289,-456.8724C1045.7368,-454.1215 1121.0224,-447.903 1185.1436,-434 1206.8154,-429.301 1230.3323,-421.5305 1249.1961,-414.6033"/>
<polygon fill="#757575" stroke="#757575" points="1250.4662,-417.8651 1258.6021,-411.0785 1248.0098,-411.3103 1250.4662,-417.8651"/>
</g>
<!-- metal/index.ts&#45;&gt;metal/engine.ts -->
<g id="edge19" class="edge">
<title>metal/index.ts&#45;&gt;metal/engine.ts</title>
<path fill="none" stroke="#757575" d="M662.779,-384.0301C679.4923,-389.9885 700.7284,-397.2753 719.9014,-403 774.3939,-419.2706 837.3459,-434.9676 881.9676,-445.5814"/>
<polygon fill="#757575" stroke="#757575" points="881.2284,-449.0031 891.7657,-447.9004 882.8407,-442.1913 881.2284,-449.0031"/>
</g>
<!-- metal/index.ts&#45;&gt;metal/window&#45;proxy.ts -->
<g id="edge24" class="edge">
<title>metal/index.ts&#45;&gt;metal/window&#45;proxy.ts</title>
<path fill="none" stroke="#757575" d="M684.2671,-366.1229C695.9618,-364.8315 708.342,-363.6757 719.9014,-363 823.3312,-356.9543 942.5137,-357.8036 1021.3088,-359.4502"/>
<polygon fill="#757575" stroke="#757575" points="1021.5987,-362.9573 1031.6727,-359.6763 1021.7514,-355.959 1021.5987,-362.9573"/>
</g>
<!-- metal/element.ts -->
<g id="node10" class="node">
<title>metal/element.ts</title>
<path fill="none" stroke="#c6c5fe" d="M1160.292,-548C1160.292,-548 1056.5381,-548 1056.5381,-548 1052.8714,-548 1049.2047,-544.3333 1049.2047,-540.6667 1049.2047,-540.6667 1049.2047,-533.3333 1049.2047,-533.3333 1049.2047,-529.6667 1052.8714,-526 1056.5381,-526 1056.5381,-526 1160.292,-526 1160.292,-526 1163.9587,-526 1167.6254,-529.6667 1167.6254,-533.3333 1167.6254,-533.3333 1167.6254,-540.6667 1167.6254,-540.6667 1167.6254,-544.3333 1163.9587,-548 1160.292,-548"/>
<text text-anchor="middle" x="1108.415" y="-532.8" font-family="Arial" font-size="14.00" fill="#c6c5fe">metal/element.ts</text>
</g>
<!-- metal/index.ts&#45;&gt;metal/element.ts -->
<g id="edge18" class="edge">
<title>metal/index.ts&#45;&gt;metal/element.ts</title>
<path fill="none" stroke="#757575" d="M639.0011,-384.1454C651.5036,-405.2316 681.6163,-450.9142 719.9014,-474 818.9462,-533.7237 956.8587,-542.0124 1038.9446,-540.7728"/>
<polygon fill="#757575" stroke="#757575" points="1039.2366,-544.2676 1049.1632,-540.5647 1039.094,-537.2691 1039.2366,-544.2676"/>
</g>
<!-- metal/index.ts&#45;&gt;metal/interfaces.ts -->
<g id="edge21" class="edge">
<title>metal/index.ts&#45;&gt;metal/interfaces.ts</title>
<path fill="none" stroke="#757575" d="M645.7547,-384.0493C662.1002,-397.3901 691.4397,-419.6896 719.9014,-433 788.8009,-465.2216 809.3835,-468.6824 884.7422,-479 1017.3427,-497.1547 1057.9438,-499.6257 1185.1436,-458 1213.7649,-448.6338 1243.2529,-430.4925 1262.8815,-416.9812"/>
<polygon fill="#757575" stroke="#757575" points="1265.0059,-419.766 1271.1678,-411.1472 1260.9761,-414.0423 1265.0059,-419.766"/>
</g>
<!-- metal/events.ts -->
<g id="node12" class="node">
<title>metal/events.ts</title>
<path fill="none" stroke="#ff6c60" d="M832.1399,-394C832.1399,-394 736.5036,-394 736.5036,-394 732.837,-394 729.1703,-390.3333 729.1703,-386.6667 729.1703,-386.6667 729.1703,-379.3333 729.1703,-379.3333 729.1703,-375.6667 732.837,-372 736.5036,-372 736.5036,-372 832.1399,-372 832.1399,-372 835.8066,-372 839.4732,-375.6667 839.4732,-379.3333 839.4732,-379.3333 839.4732,-386.6667 839.4732,-386.6667 839.4732,-390.3333 835.8066,-394 832.1399,-394"/>
<text text-anchor="middle" x="784.3218" y="-378.8" font-family="Arial" font-size="14.00" fill="#ff6c60">metal/events.ts</text>
</g>
<!-- metal/index.ts&#45;&gt;metal/events.ts -->
<g id="edge20" class="edge">
<title>metal/index.ts&#45;&gt;metal/events.ts</title>
<path fill="none" stroke="#757575" d="M684.0424,-369.9585C695.2708,-370.3929 707.3018,-371.098 718.9939,-371.9986"/>
<polygon fill="#757575" stroke="#757575" points="718.8984,-375.5025 729.1528,-372.8384 719.4752,-368.5263 718.8984,-375.5025"/>
</g>
<!-- metal/queue.ts -->
<g id="node13" class="node">
<title>metal/queue.ts</title>
<path fill="none" stroke="#c6c5fe" d="M986.7151,-202C986.7151,-202 893.7136,-202 893.7136,-202 890.0469,-202 886.3802,-198.3333 886.3802,-194.6667 886.3802,-194.6667 886.3802,-187.3333 886.3802,-187.3333 886.3802,-183.6667 890.0469,-180 893.7136,-180 893.7136,-180 986.7151,-180 986.7151,-180 990.3818,-180 994.0485,-183.6667 994.0485,-187.3333 994.0485,-187.3333 994.0485,-194.6667 994.0485,-194.6667 994.0485,-198.3333 990.3818,-202 986.7151,-202"/>
<text text-anchor="middle" x="940.2144" y="-186.8" font-family="Arial" font-size="14.00" fill="#c6c5fe">metal/queue.ts</text>
</g>
<!-- metal/index.ts&#45;&gt;metal/queue.ts -->
<g id="edge22" class="edge">
<title>metal/index.ts&#45;&gt;metal/queue.ts</title>
<path fill="none" stroke="#757575" d="M637.1338,-361.9077C647.5718,-337.185 676.2089,-277.3559 719.9014,-247 745.0352,-229.5379 820.5804,-212.6797 876.2285,-202.1032"/>
<polygon fill="#757575" stroke="#757575" points="877.1868,-205.4846 886.3711,-200.2026 875.8975,-198.6043 877.1868,-205.4846"/>
</g>
<!-- metal/scheduler.ts -->
<g id="node14" class="node">
<title>metal/scheduler.ts</title>
<path fill="none" stroke="#c6c5fe" d="M841.3294,-278C841.3294,-278 727.3142,-278 727.3142,-278 723.6475,-278 719.9809,-274.3333 719.9809,-270.6667 719.9809,-270.6667 719.9809,-263.3333 719.9809,-263.3333 719.9809,-259.6667 723.6475,-256 727.3142,-256 727.3142,-256 841.3294,-256 841.3294,-256 844.996,-256 848.6627,-259.6667 848.6627,-263.3333 848.6627,-263.3333 848.6627,-270.6667 848.6627,-270.6667 848.6627,-274.3333 844.996,-278 841.3294,-278"/>
<text text-anchor="middle" x="784.3218" y="-262.8" font-family="Arial" font-size="14.00" fill="#c6c5fe">metal/scheduler.ts</text>
</g>
<!-- metal/index.ts&#45;&gt;metal/scheduler.ts -->
<g id="edge23" class="edge">
<title>metal/index.ts&#45;&gt;metal/scheduler.ts</title>
<path fill="none" stroke="#757575" d="M648.6533,-361.8565C675.1988,-343.2964 728.6358,-305.9345 759.9394,-284.0476"/>
<polygon fill="#757575" stroke="#757575" points="761.9511,-286.9118 768.141,-278.3132 757.94,-281.175 761.9511,-286.9118"/>
</g>
<!-- metal/window&#45;proxy.ts&#45;&gt;metal/interfaces.ts -->
<g id="edge31" class="edge">
<title>metal/window&#45;proxy.ts&#45;&gt;metal/interfaces.ts</title>
<path fill="none" stroke="#757575" d="M1160.2408,-373.0933C1180.2938,-377.3857 1203.408,-382.3333 1224.3036,-386.806"/>
<polygon fill="#757575" stroke="#757575" points="1223.849,-390.2879 1234.3601,-388.9586 1225.3142,-383.4429 1223.849,-390.2879"/>
</g>
<!-- spaniel&#45;observer.ts&#45;&gt;interfaces.ts -->
<g id="edge32" class="edge">
<title>spaniel&#45;observer.ts&#45;&gt;interfaces.ts</title>
<path fill="none" stroke="#757575" d="M291.1992,-217.7195C307.7214,-198.188 344.5521,-158.227 384.792,-138 445.9432,-107.2617 524.3667,-94.6788 576.4639,-89.5371"/>
<polygon fill="#757575" stroke="#757575" points="576.8852,-93.0131 586.5194,-88.6048 576.2389,-86.043 576.8852,-93.0131"/>
</g>
<!-- spaniel&#45;observer.ts&#45;&gt;intersection&#45;observer.ts -->
<g id="edge33" class="edge">
<title>spaniel&#45;observer.ts&#45;&gt;intersection&#45;observer.ts</title>
<path fill="none" stroke="#757575" d="M348.6669,-229C357.1198,-229 365.8794,-229 374.6266,-229"/>
<polygon fill="#757575" stroke="#757575" points="374.8702,-232.5001 384.8702,-229 374.8701,-225.5001 374.8702,-232.5001"/>
</g>
<!-- spaniel&#45;observer.ts&#45;&gt;metal/index.ts -->
<g id="edge34" class="edge">
<title>spaniel&#45;observer.ts&#45;&gt;metal/index.ts</title>
<path fill="none" stroke="#757575" d="M308.972,-240.0603C371.3152,-265.6605 525.6018,-329.0156 596.2877,-358.0416"/>
<polygon fill="#757575" stroke="#757575" points="595.1087,-361.341 605.6887,-361.902 597.7678,-354.8657 595.1087,-361.341"/>
</g>
<!-- spaniel&#45;observer.ts&#45;&gt;metal/window&#45;proxy.ts -->
<g id="edge35" class="edge">
<title>spaniel&#45;observer.ts&#45;&gt;metal/window&#45;proxy.ts</title>
<path fill="none" stroke="#757575" d="M331.1408,-217.9518C473.2724,-187.0588 882.1379,-106.1663 995.6865,-171 1060.7594,-208.1551 1092.0414,-299.1977 1103.3026,-340.7264"/>
<polygon fill="#757575" stroke="#757575" points="1099.9629,-341.7921 1105.8517,-350.5996 1106.7406,-340.0421 1099.9629,-341.7921"/>
</g>
<!-- spaniel&#45;observer.ts&#45;&gt;utils.ts -->
<g id="edge36" class="edge">
<title>spaniel&#45;observer.ts&#45;&gt;utils.ts</title>
<path fill="none" stroke="#757575" d="M299.0605,-217.8677C318.8211,-205.5173 352.8016,-186.0143 384.792,-176 572.3196,-117.2963 810.67,-112.0431 902.1294,-112.4121"/>
<polygon fill="#757575" stroke="#757575" points="902.267,-115.913 912.29,-112.4795 902.3135,-108.9132 902.267,-115.913"/>
</g>
<!-- utils.ts&#45;&gt;metal/interfaces.ts -->
<g id="edge37" class="edge">
<title>utils.ts&#45;&gt;metal/interfaces.ts</title>
<path fill="none" stroke="#757575" d="M967.9339,-112.8296C1017.3198,-113.9773 1121.3251,-123.1453 1185.1436,-177 1249.351,-231.1829 1274.509,-334.7134 1282.6342,-379.0282"/>
<polygon fill="#757575" stroke="#757575" points="1279.1971,-379.6934 1284.3463,-388.9528 1286.0952,-378.5033 1279.1971,-379.6934"/>
</g>
<!-- watcher.ts&#45;&gt;interfaces.ts -->
<g id="edge38" class="edge">
<title>watcher.ts&#45;&gt;interfaces.ts</title>
<path fill="none" stroke="#757575" d="M152.9559,-222.8107C187.9053,-193.9761 286.9323,-117.4764 384.792,-90 448.769,-72.037 525.735,-74.2826 576.7638,-78.8969"/>
<polygon fill="#757575" stroke="#757575" points="576.6383,-82.401 586.9284,-79.8785 577.3112,-75.4334 576.6383,-82.401"/>
</g>
<!-- watcher.ts&#45;&gt;metal/window&#45;proxy.ts -->
<g id="edge39" class="edge">
<title>watcher.ts&#45;&gt;metal/window&#45;proxy.ts</title>
<path fill="none" stroke="#757575" d="M179.4134,-243.7852C262.7719,-263.4713 462.5469,-306 632.7153,-306 632.7153,-306 632.7153,-306 784.3218,-306 883.3043,-306 996.8412,-331.6776 1059.8354,-348.2577"/>
<polygon fill="#757575" stroke="#757575" points="1059.3106,-351.7401 1069.8749,-350.9362 1061.1151,-344.9766 1059.3106,-351.7401"/>
</g>
<!-- watcher.ts&#45;&gt;spaniel&#45;observer.ts -->
<g id="edge40" class="edge">
<title>watcher.ts&#45;&gt;spaniel&#45;observer.ts</title>
<path fill="none" stroke="#757575" d="M179.3958,-232.6072C187.5203,-232.3217 196.3318,-232.012 205.2626,-231.6982"/>
<polygon fill="#757575" stroke="#757575" points="205.4954,-235.1922 215.3662,-231.3431 205.2494,-228.1966 205.4954,-235.1922"/>
</g>
<!-- metal/element.ts&#45;&gt;metal/interfaces.ts -->
<g id="edge12" class="edge">
<title>metal/element.ts&#45;&gt;metal/interfaces.ts</title>
<path fill="none" stroke="#757575" d="M1155.6314,-525.9098C1165.8276,-522.365 1176.2166,-517.8038 1185.1436,-512 1223.2333,-487.236 1256.034,-444.5258 1273.1916,-419.6163"/>
<polygon fill="#757575" stroke="#757575" points="1276.1023,-421.56 1278.786,-411.3107 1270.2965,-417.6495 1276.1023,-421.56"/>
</g>
<!-- metal/events.ts&#45;&gt;metal/index.ts -->
<g id="edge15" class="edge">
<title>metal/events.ts&#45;&gt;metal/index.ts</title>
<path fill="none" stroke="#757575" d="M729.1528,-385.8837C717.7573,-385.389 705.6884,-384.6321 694.0877,-383.6882"/>
<polygon fill="#757575" stroke="#757575" points="694.3086,-380.1943 684.0424,-382.8125 693.7006,-387.1678 694.3086,-380.1943"/>
</g>
<!-- metal/events.ts&#45;&gt;metal/window&#45;proxy.ts -->
<g id="edge17" class="edge">
<title>metal/events.ts&#45;&gt;metal/window&#45;proxy.ts</title>
<path fill="none" stroke="#757575" d="M839.6671,-379.4138C889.468,-376.1869 963.4724,-371.3917 1021.2218,-367.6498"/>
<polygon fill="#757575" stroke="#757575" points="1021.6866,-371.1271 1031.4393,-366.9877 1021.2339,-364.1418 1021.6866,-371.1271"/>
</g>
<!-- metal/events.ts&#45;&gt;metal/interfaces.ts -->
<g id="edge16" class="edge">
<title>metal/events.ts&#45;&gt;metal/interfaces.ts</title>
<path fill="none" stroke="#757575" d="M839.439,-384.8679C929.7418,-387.9283 1109.3169,-394.0141 1211.0659,-397.4624"/>
<polygon fill="#757575" stroke="#757575" points="1211.1542,-400.9673 1221.267,-397.8081 1211.3913,-393.9713 1211.1542,-400.9673"/>
</g>
<!-- metal/queue.ts&#45;&gt;metal/interfaces.ts -->
<g id="edge25" class="edge">
<title>metal/queue.ts&#45;&gt;metal/interfaces.ts</title>
<path fill="none" stroke="#757575" d="M994.1663,-182.9146C1047.233,-177.8846 1128.33,-178.3153 1185.1436,-216 1243.6855,-254.8311 1271.2311,-339.5895 1281.2569,-379.0329"/>
<polygon fill="#757575" stroke="#757575" points="1277.8848,-379.9795 1283.6314,-388.8805 1284.6898,-378.3386 1277.8848,-379.9795"/>
</g>
<!-- metal/scheduler.ts&#45;&gt;metal/engine.ts -->
<g id="edge26" class="edge">
<title>metal/scheduler.ts&#45;&gt;metal/engine.ts</title>
<path fill="none" stroke="#757575" d="M793.377,-278.1526C818.9925,-309.7011 892.2021,-399.8672 924.5372,-439.6918"/>
<polygon fill="#757575" stroke="#757575" points="922.1136,-442.2595 931.1341,-447.8166 927.5479,-437.8471 922.1136,-442.2595"/>
</g>
<!-- metal/scheduler.ts&#45;&gt;metal/window&#45;proxy.ts -->
<g id="edge29" class="edge">
<title>metal/scheduler.ts&#45;&gt;metal/window&#45;proxy.ts</title>
<path fill="none" stroke="#757575" d="M848.8434,-267.3853C891.5667,-269.3791 948.255,-275.3971 995.6865,-292 1030.0855,-304.041 1065.0197,-327.9328 1086.6907,-344.4298"/>
<polygon fill="#757575" stroke="#757575" points="1084.8132,-347.4035 1094.8566,-350.7771 1089.1091,-341.8767 1084.8132,-347.4035"/>
</g>
<!-- metal/scheduler.ts&#45;&gt;utils.ts -->
<g id="edge30" class="edge">
<title>metal/scheduler.ts&#45;&gt;utils.ts</title>
<path fill="none" stroke="#757575" d="M795.5332,-255.9247C822.0325,-229.7471 888.7577,-163.8319 921.5021,-131.4851"/>
<polygon fill="#757575" stroke="#757575" points="924.0295,-133.9082 928.6839,-124.3904 919.1101,-128.9283 924.0295,-133.9082"/>
</g>
<!-- metal/scheduler.ts&#45;&gt;metal/interfaces.ts -->
<g id="edge27" class="edge">
<title>metal/scheduler.ts&#45;&gt;metal/interfaces.ts</title>
<path fill="none" stroke="#757575" d="M848.744,-260.2462C890.9272,-257.3995 947.0459,-256.6077 995.6865,-266 1100.8952,-286.3152 1212.4947,-352.1974 1261.0123,-383.3661"/>
<polygon fill="#757575" stroke="#757575" points="1259.296,-386.4249 1269.5884,-388.9384 1263.11,-380.5551 1259.296,-386.4249"/>
</g>
<!-- metal/scheduler.ts&#45;&gt;metal/queue.ts -->
<g id="edge28" class="edge">
<title>metal/scheduler.ts&#45;&gt;metal/queue.ts</title>
<path fill="none" stroke="#757575" d="M817.4915,-255.9806C827.7573,-252.0839 838.9395,-247.3277 848.7422,-242 866.0831,-232.5753 867.6583,-225.8828 884.7422,-216 890.7013,-212.5527 897.2215,-209.2404 903.6308,-206.2177"/>
<polygon fill="#757575" stroke="#757575" points="905.2125,-209.3433 912.8636,-202.0145 902.3121,-202.9725 905.2125,-209.3433"/>
</g>
</g>
</svg>
